<svg width="20" height="19" viewBox="0 0 20 19" fill="none" xmlns="http://www.w3.org/2000/svg">
<path d="M9.51149 0.00986481C8.80009 0.0841322 8.11214 0.271755 7.49845 0.564918C6.38053 1.10043 5.32124 2.16362 4.81309 3.262C3.77335 5.50957 4.22286 8.11285 5.93883 9.78192C6.38444 10.2158 6.48607 10.2979 6.88477 10.5598C8.53038 11.6308 10.6372 11.7793 12.4118 10.9507C13.6197 10.3878 14.6399 9.3754 15.1949 8.19493C15.9298 6.6275 15.9259 4.8568 15.1871 3.262C14.679 2.16362 13.6197 1.10043 12.5017 0.564918C12.06 0.353841 11.4659 0.162309 11.0359 0.0880413C10.6802 0.0255003 9.80075 -0.0214062 9.51149 0.00986481Z" fill="white"/>
<path d="M4.97328 10.5756C2.43255 12.0766 0.724395 14.4414 0.11071 17.3027C-0.00655437 17.846 -0.0339161 18.3111 0.0442603 18.4597C0.130254 18.6277 0.356966 18.8154 0.528954 18.8623C0.736121 18.9209 19.2639 18.9209 19.4711 18.8623C19.6431 18.8154 19.8698 18.6277 19.9558 18.4597C20.1004 18.1782 19.8776 16.9587 19.4711 15.8486C19.2952 15.36 18.8691 14.4922 18.5838 14.0271C17.7121 12.6238 16.4574 11.4082 15.015 10.5756L14.6828 10.384L14.5812 10.4583C14.5225 10.4974 14.4404 10.5717 14.3974 10.6186C14.3545 10.6694 14.1825 10.8101 14.0144 10.9391C13.2795 11.502 12.5603 11.8538 11.6026 12.1196C10.6958 12.3697 9.30426 12.3697 8.39741 12.1196C7.25994 11.8029 6.36873 11.3222 5.57133 10.5912C5.44625 10.4779 5.33289 10.384 5.31726 10.388C5.30162 10.388 5.14918 10.4739 4.97328 10.5756Z" fill="white"/>
</svg>
