<svg width="20" height="20" viewBox="0 0 20 20" fill="none" xmlns="http://www.w3.org/2000/svg">
<path d="M12.7562 0.0506935C11.7504 0.23843 10.8788 0.613903 10.0921 1.19499C8.06724 2.69688 7.15538 5.30284 7.79458 7.77022L7.86609 8.04289L7.35205 8.56587C7.06598 8.85194 6.80673 9.16037 6.7665 9.24976C6.71733 9.37492 6.69945 9.58948 6.69945 10.1527V10.8902H5.99767C5.60879 10.8902 5.21097 10.9126 5.1171 10.9394C4.983 10.9751 4.80868 11.1182 4.41533 11.5026C4.12478 11.7842 3.85659 12.0837 3.82083 12.1641C3.76272 12.2804 3.74931 12.477 3.74931 13.0984V13.8851H2.96708C2.27871 13.8851 2.16249 13.894 2.01498 13.97C1.85407 14.0549 0.213612 15.6775 0.0661053 15.8965C-0.0367025 16.0574 -0.0277627 16.339 0.151034 17.8454C0.31642 19.2311 0.361119 19.4099 0.571205 19.5574C0.745531 19.6781 0.758941 19.6825 2.17143 19.8524C3.65097 20.0312 3.94599 20.0401 4.1069 19.9373C4.16948 19.8971 5.95744 18.127 8.08512 15.9993L11.9561 12.1373L12.3315 12.2267C13.8066 12.5754 15.2861 12.41 16.5824 11.7574C18.3212 10.8902 19.4923 9.36598 19.917 7.42604C20.0198 6.97011 20.0287 5.49057 19.9348 5.01229C19.6935 3.78754 19.1034 2.68347 18.2095 1.79396C17.3468 0.926796 16.3366 0.372528 15.1208 0.0953941C14.6693 -0.00741386 13.2255 -0.0342331 12.7562 0.0506935ZM14.7676 1.54364C16.6271 1.92805 18.0754 3.3763 18.4598 5.23579C18.5671 5.74536 18.5715 6.60358 18.4732 7.08186C18.0262 9.2587 16.2293 10.8098 14.0301 10.9215C13.4311 10.9483 12.9305 10.8768 12.2734 10.6667C11.8175 10.5237 11.6923 10.5058 11.4957 10.5773C11.4241 10.6041 9.63618 12.3563 7.41463 14.5734L3.45877 18.5204L2.5916 18.4175C2.11332 18.3594 1.7155 18.3058 1.71103 18.2969C1.70209 18.2879 1.64845 17.8901 1.58587 17.4118L1.4786 16.5447L2.06862 15.9502L2.65418 15.3601H3.61521C4.52707 15.3601 4.58965 15.3557 4.77739 15.2573C5.17521 15.0562 5.21991 14.8953 5.22438 13.6839V12.7855L5.43893 12.5798L5.64902 12.3698L6.68604 12.3563C7.82139 12.3429 7.8348 12.3385 8.0583 12.0345C8.1477 11.9183 8.15217 11.8423 8.16558 10.8768L8.17899 9.83979L8.77796 9.23635C9.10873 8.90558 9.39927 8.57481 9.42609 8.50776C9.49761 8.31108 9.47973 8.18593 9.33669 7.72999C8.94334 6.4963 9.00145 5.2939 9.51102 4.21218C10.1592 2.82651 11.3839 1.85654 12.8903 1.5347C13.3462 1.43637 14.2715 1.44084 14.7676 1.54364Z" fill="white"/>
<path d="M13.3642 2.17398C11.9607 2.37065 10.7315 3.34062 10.2264 4.64584C9.85983 5.59793 9.86877 6.70646 10.2532 7.59598C10.4946 8.16812 10.6778 8.43185 11.1248 8.87884C11.9115 9.66554 12.8055 10.041 13.8872 10.041C14.8304 10.041 15.5903 9.78623 16.3323 9.22302C16.9715 8.7358 17.5347 7.87311 17.7447 7.06853C17.8744 6.58131 17.8833 5.73203 17.7671 5.24033C17.3559 3.47025 15.8897 2.2455 14.0794 2.1561C13.8425 2.14269 13.5207 2.15163 13.3642 2.17398ZM14.6203 3.73398C15.0539 3.88148 15.3444 4.06028 15.6439 4.35976C16.4932 5.20905 16.6183 6.46956 15.9523 7.46635C15.0762 8.77156 13.2838 8.94589 12.1708 7.83288C11.3796 7.04171 11.2142 5.93317 11.7327 4.94085C12.278 3.90383 13.5609 3.36744 14.6203 3.73398Z" fill="white"/>
<path d="M13.6596 4.29726C13.4316 4.37771 13.2797 4.52522 13.2215 4.71743C13.1947 4.8113 13.1813 5.18677 13.1903 5.63823C13.2037 6.48751 13.226 6.55009 13.5434 6.72889C13.6909 6.81381 13.7803 6.82275 14.4418 6.82275C15.0676 6.82275 15.1928 6.80934 15.3269 6.73783C15.8096 6.47857 15.832 5.81702 15.3626 5.46837C15.2866 5.41473 15.1436 5.3745 14.9514 5.36109L14.6564 5.33427V5.12866C14.6564 4.68167 14.4552 4.37771 14.0976 4.27938C13.8786 4.22127 13.8697 4.22127 13.6596 4.29726Z" fill="white"/>
</svg>
