<svg width="32" height="32" viewBox="0 0 32 32" fill="none" xmlns="http://www.w3.org/2000/svg">
<g clip-path="url(#clip0_304_100)">
<path d="M9.60012 0.761963H22.4001C27.2763 0.761963 31.2382 4.72387 31.2382 9.60006V22.4001C31.2382 24.7441 30.3071 26.9921 28.6496 28.6495C26.9921 30.307 24.7441 31.2382 22.4001 31.2382H9.60012C4.72393 31.2382 0.762024 27.2763 0.762024 22.4001V9.60006C0.762024 7.25605 1.69318 5.00805 3.35064 3.35058C5.00811 1.69312 7.25611 0.761963 9.60012 0.761963ZM9.29536 3.80958C7.84046 3.80958 6.44514 4.38754 5.41637 5.41631C4.3876 6.44508 3.80964 7.84039 3.80964 9.2953V22.7048C3.80964 25.7372 6.26298 28.1905 9.29536 28.1905H22.7049C24.1598 28.1905 25.5551 27.6126 26.5839 26.5838C27.6126 25.555 28.1906 24.1597 28.1906 22.7048V9.2953C28.1906 6.26292 25.7373 3.80958 22.7049 3.80958H9.29536ZM24.0001 6.0953C24.5053 6.0953 24.9898 6.29598 25.347 6.65319C25.7042 7.0104 25.9049 7.49488 25.9049 8.00006C25.9049 8.50523 25.7042 8.98972 25.347 9.34693C24.9898 9.70414 24.5053 9.90482 24.0001 9.90482C23.4949 9.90482 23.0105 9.70414 22.6532 9.34693C22.296 8.98972 22.0954 8.50523 22.0954 8.00006C22.0954 7.49488 22.296 7.0104 22.6532 6.65319C23.0105 6.29598 23.4949 6.0953 24.0001 6.0953ZM16.0001 8.38101C18.0208 8.38101 19.9588 9.18373 21.3876 10.6126C22.8165 12.0414 23.6192 13.9794 23.6192 16.0001C23.6192 18.0208 22.8165 19.9587 21.3876 21.3875C19.9588 22.8164 18.0208 23.6191 16.0001 23.6191C13.9794 23.6191 12.0415 22.8164 10.6126 21.3875C9.18379 19.9587 8.38107 18.0208 8.38107 16.0001C8.38107 13.9794 9.18379 12.0414 10.6126 10.6126C12.0415 9.18373 13.9794 8.38101 16.0001 8.38101ZM16.0001 11.4286C14.7877 11.4286 13.6249 11.9103 12.7676 12.7676C11.9103 13.6249 11.4287 14.7876 11.4287 16.0001C11.4287 17.2125 11.9103 18.3752 12.7676 19.2325C13.6249 20.0899 14.7877 20.5715 16.0001 20.5715C17.2125 20.5715 18.3753 20.0899 19.2326 19.2325C20.0899 18.3752 20.5716 17.2125 20.5716 16.0001C20.5716 14.7876 20.0899 13.6249 19.2326 12.7676C18.3753 11.9103 17.2125 11.4286 16.0001 11.4286Z" fill="current"/>
</g>
<defs>
<clipPath id="clip0_304_100">
<rect width="32" height="32" fill="white"/>
</clipPath>
</defs>
</svg>
