<svg width="32" height="32" viewBox="0 0 32 32" fill="none" xmlns="http://www.w3.org/2000/svg">
<g clip-path="url(#clip0_304_97)">
<path d="M26.743 5.19609C25.3459 3.78493 23.6819 2.66606 21.8479 1.90474C20.014 1.14342 18.0468 0.754892 16.0611 0.76181C7.74105 0.76181 0.960101 7.54276 0.960101 15.8628C0.960101 18.5294 1.66105 21.1199 2.97153 23.4056L0.838196 31.238L8.8382 29.1351C11.0477 30.339 13.5315 30.979 16.0611 30.979C24.3811 30.979 31.162 24.198 31.162 15.878C31.162 11.8399 29.5925 8.04562 26.743 5.19609ZM16.0611 28.419C13.8058 28.419 11.5963 27.8094 9.66105 26.6666L9.20391 26.3923L4.44962 27.6418L5.71439 23.0094L5.40962 22.537C4.15667 20.5362 3.49136 18.2235 3.48962 15.8628C3.48962 8.94467 9.12772 3.30657 16.0458 3.30657C19.3982 3.30657 22.5525 4.61705 24.9144 6.99419C26.0839 8.15833 27.0107 9.54301 27.6411 11.068C28.2715 12.593 28.5929 14.2279 28.5868 15.878C28.6172 22.7961 22.9791 28.419 16.0611 28.419ZM22.9487 19.0323C22.5677 18.8494 20.7087 17.9351 20.3734 17.798C20.023 17.6761 19.7791 17.6151 19.5201 17.9809C19.2611 18.3618 18.5449 19.2151 18.3315 19.459C18.1182 19.718 17.8896 19.7485 17.5087 19.5504C17.1277 19.3675 15.9087 18.9561 14.4763 17.6761C13.3487 16.6704 12.602 15.4361 12.3734 15.0551C12.1601 14.6742 12.343 14.4761 12.5411 14.278C12.7087 14.1104 12.922 13.8361 13.1049 13.6228C13.2877 13.4094 13.3639 13.2418 13.4858 12.998C13.6077 12.739 13.5468 12.5256 13.4553 12.3428C13.3639 12.1599 12.602 10.3009 12.2972 9.53895C11.9925 8.80752 11.6725 8.89895 11.4439 8.88371H10.7125C10.4534 8.88371 10.0572 8.97514 9.70677 9.3561C9.37153 9.73705 8.39629 10.6513 8.39629 12.5104C8.39629 14.3694 9.75248 16.1675 9.93534 16.4113C10.1182 16.6704 12.602 20.4799 16.3811 22.1104C17.2801 22.5066 17.9811 22.7351 18.5296 22.9028C19.4287 23.1923 20.2515 23.1466 20.9068 23.0551C21.6382 22.9485 23.1468 22.1409 23.4515 21.257C23.7715 20.3732 23.7715 19.6266 23.6649 19.459C23.5582 19.2913 23.3296 19.2151 22.9487 19.0323Z" fill="current"/>
</g>
<defs>
<clipPath id="clip0_304_97">
<rect width="32" height="32" fill="white"/>
</clipPath>
</defs>
</svg>
