<svg width="80" height="42" viewBox="0 0 80 42" fill="none" xmlns="http://www.w3.org/2000/svg">
<path fill-rule="evenodd" clip-rule="evenodd" d="M70.1939 29.9916L64.6089 36.8192L61.343 36.4552C56.7328 35.9415 52.1121 35.6582 47.4719 35.7014C46.9114 35.7067 46.3928 35.81 45.8177 35.7784C45.3608 35.7534 44.9461 35.7904 44.4913 35.8304C43.955 35.8775 43.4194 35.9098 42.8812 35.9234C42.5321 35.9323 42.1823 35.9314 41.8335 35.9437C41.6989 35.9484 41.5645 35.9555 41.4302 35.9664C40.3688 36.0524 39.3301 36.2677 38.2662 36.3561C37.3168 36.4352 36.3786 36.5445 35.4371 36.6902C34.4245 36.847 33.4152 37.0321 32.4043 37.2001C29.714 37.6472 26.9915 38.3225 24.361 39.0432L18.7194 40.7126L18.3339 40.2723C17.9208 39.8002 17.4501 39.3671 16.9749 38.9584C16.028 38.1435 14.9552 37.3889 14.0632 36.5275C13.421 35.9074 12.5789 35.3681 11.8661 34.8185C10.0726 33.4357 8.26354 32.0949 6.50106 30.6683C5.28 29.6801 4.04365 28.647 2.92665 27.5421C2.25479 26.8775 1.11199 25.7137 1.01529 24.7318C0.957485 24.1449 1.05264 23.5622 1.48966 23.1318C2.05528 22.5748 2.90815 22.5763 3.6476 22.5139C4.86266 22.4113 5.90591 22.6732 7.08256 22.8701C8.58963 23.1223 11.4647 23.8241 12.91 23.5546C14.6877 23.2231 16.1472 22.4287 17.3671 21.0942C18.5388 19.8125 19.3509 18.193 20.0232 16.6057C20.5068 15.4642 20.9319 14.2996 21.388 13.1472C21.825 12.0429 22.2959 10.9252 22.8979 9.89954C23.8612 8.25873 24.7687 7.07055 26.1862 5.78699C29.1782 3.07755 33.569 1.62672 37.5211 1.16965L37.5351 1.16787L39.0901 1.03663L39.1041 1.03604C42.208 0.869947 45.5579 1.26194 48.4121 2.54662C50.081 3.29782 51.6238 4.28115 52.9276 5.57134C53.8885 6.52219 54.7432 7.5738 55.5419 8.66263C56.834 10.424 57.9733 12.291 59.2646 14.0501C60.3437 15.5204 61.6079 17.016 63.1949 17.9556C64.4557 18.7022 65.8143 19.0234 67.2762 18.9869C68.0664 18.9672 69.2063 18.5868 69.9573 18.3313C70.9129 18.0063 71.8472 17.6289 72.7988 17.2986C73.611 17.0168 74.3937 16.7529 75.2355 16.5596C76.2635 16.3235 77.9219 16.0309 78.6693 17.0001C78.8427 17.225 78.9423 17.4899 78.9701 17.7717C79.0818 18.9058 78.2864 20.2764 77.6894 21.1944C76.8297 22.5162 75.7921 23.7805 74.7633 24.9744C73.9143 25.9598 73.0384 26.9219 72.1543 27.8757C71.5013 28.5802 70.8365 29.278 70.1939 29.9916Z" fill="#1B1918" stroke="#4C110C" stroke-width="0.5669"/>
<path fill-rule="evenodd" clip-rule="evenodd" d="M37.6261 2.04494L39.153 1.91608C42.3257 1.74631 45.4769 2.19503 48.0371 3.34747C49.6424 4.06992 51.0783 4.99433 52.2851 6.1885C57.5886 11.4366 59.6424 20.0588 67.299 19.868C68.819 19.83 71.7319 18.6037 73.0984 18.1295C73.4741 17.9991 77.9134 16.33 78.061 17.8292C78.3056 20.3125 71.6125 27.0175 69.5005 29.3648L64.2164 35.8246L61.4443 35.5157C56.7924 34.971 52.1791 34.7123 47.4634 34.7563C46.9001 34.7616 46.4434 34.8662 45.8679 34.8347C45.3358 34.8055 44.9832 34.8382 44.4114 34.8887C42.8055 35.0299 42.1909 34.9566 41.3565 35.0242C40.1421 35.1225 39.429 35.3111 38.1905 35.4142C35.8394 35.6098 34.6312 35.8723 32.2545 36.2673C29.6503 36.7001 26.5512 37.4641 24.1107 38.133L19.0214 39.6389C17.7437 38.1791 15.7393 36.8443 14.6979 35.8387C14.1036 35.2648 13.1253 34.6042 12.4239 34.0634C10.2033 32.3512 2.1047 26.4417 1.92434 24.6104C1.81015 23.4507 2.57557 23.489 3.72447 23.392C4.87254 23.2951 5.95872 23.576 6.93177 23.7389C8.49806 24.001 11.4897 24.7167 13.0775 24.4205C20.3601 23.0624 20.9902 14.9217 23.6858 10.3299C24.614 8.74868 25.4017 7.69766 26.7994 6.432C29.427 4.05256 33.4665 2.52597 37.6261 2.04494Z" fill="#E30016"/>
</svg>
