<svg width="348" height="122" viewBox="0 0 348 122" fill="none" xmlns="http://www.w3.org/2000/svg">
<path d="M1.302 118.983V111.563H2.688L5.88 117.051H5.32L8.596 111.563H9.856V118.983H8.638V113.075L8.862 113.201L5.866 118.143H5.278L2.268 113.103L2.534 113.047V118.983H1.302ZM21.8519 118.983V117.415L21.7819 117.121V114.447C21.7819 113.878 21.6139 113.439 21.2779 113.131C20.9513 112.814 20.4566 112.655 19.7939 112.655C19.3553 112.655 18.9259 112.73 18.5059 112.879C18.0859 113.019 17.7313 113.21 17.4419 113.453L16.8819 112.445C17.2646 112.137 17.7219 111.904 18.2539 111.745C18.7953 111.577 19.3599 111.493 19.9479 111.493C20.9653 111.493 21.7493 111.74 22.2999 112.235C22.8506 112.73 23.1259 113.486 23.1259 114.503V118.983H21.8519ZM19.4159 119.067C18.8653 119.067 18.3799 118.974 17.9599 118.787C17.5493 118.6 17.2319 118.344 17.0079 118.017C16.7839 117.681 16.6719 117.303 16.6719 116.883C16.6719 116.482 16.7653 116.118 16.9519 115.791C17.1479 115.464 17.4606 115.203 17.8899 115.007C18.3286 114.811 18.9166 114.713 19.6539 114.713H22.0059V115.679H19.7099C19.0379 115.679 18.5853 115.791 18.3519 116.015C18.1186 116.239 18.0019 116.51 18.0019 116.827C18.0019 117.191 18.1466 117.485 18.4359 117.709C18.7253 117.924 19.1266 118.031 19.6399 118.031C20.1439 118.031 20.5826 117.919 20.9559 117.695C21.3386 117.471 21.6139 117.144 21.7819 116.715L22.0479 117.639C21.8706 118.078 21.5579 118.428 21.1099 118.689C20.6619 118.941 20.0973 119.067 19.4159 119.067ZM30.3761 118.983V111.563H35.8361V112.739H31.3981L31.7201 112.431V118.983H30.3761ZM46.592 118.983V117.415L46.522 117.121V114.447C46.522 113.878 46.354 113.439 46.018 113.131C45.6913 112.814 45.1967 112.655 44.534 112.655C44.0953 112.655 43.666 112.73 43.246 112.879C42.826 113.019 42.4713 113.21 42.182 113.453L41.622 112.445C42.0047 112.137 42.462 111.904 42.994 111.745C43.5353 111.577 44.1 111.493 44.688 111.493C45.7053 111.493 46.4893 111.74 47.04 112.235C47.5907 112.73 47.866 113.486 47.866 114.503V118.983H46.592ZM44.156 119.067C43.6053 119.067 43.12 118.974 42.7 118.787C42.2893 118.6 41.972 118.344 41.748 118.017C41.524 117.681 41.412 117.303 41.412 116.883C41.412 116.482 41.5053 116.118 41.692 115.791C41.888 115.464 42.2007 115.203 42.63 115.007C43.0687 114.811 43.6567 114.713 44.394 114.713H46.746V115.679H44.45C43.778 115.679 43.3253 115.791 43.092 116.015C42.8587 116.239 42.742 116.51 42.742 116.827C42.742 117.191 42.8867 117.485 43.176 117.709C43.4653 117.924 43.8667 118.031 44.38 118.031C44.884 118.031 45.3227 117.919 45.696 117.695C46.0787 117.471 46.354 117.144 46.522 116.715L46.788 117.639C46.6107 118.078 46.298 118.428 45.85 118.689C45.402 118.941 44.8373 119.067 44.156 119.067ZM57.1631 119.081C56.6031 119.081 56.0524 119.011 55.5111 118.871C54.9791 118.722 54.5031 118.512 54.0831 118.241L54.4891 117.219C54.8438 117.443 55.2498 117.62 55.7071 117.751C56.1644 117.872 56.6264 117.933 57.0931 117.933C57.5224 117.933 57.8911 117.882 58.1991 117.779C58.5164 117.676 58.7591 117.536 58.9271 117.359C59.0951 117.172 59.1791 116.958 59.1791 116.715C59.1791 116.37 59.0251 116.104 58.7171 115.917C58.4091 115.73 57.9798 115.637 57.4291 115.637H56.0851V114.671H57.3451C57.6718 114.671 57.9564 114.634 58.1991 114.559C58.4418 114.484 58.6284 114.372 58.7591 114.223C58.8991 114.064 58.9691 113.882 58.9691 113.677C58.9691 113.453 58.8898 113.262 58.7311 113.103C58.5724 112.944 58.3484 112.823 58.0591 112.739C57.7791 112.655 57.4478 112.613 57.0651 112.613C56.6918 112.622 56.3091 112.674 55.9171 112.767C55.5344 112.86 55.1424 113.005 54.7411 113.201L54.3771 112.151C54.8251 111.936 55.2638 111.773 55.6931 111.661C56.1318 111.54 56.5658 111.474 56.9951 111.465C57.6391 111.446 58.2131 111.521 58.7171 111.689C59.2211 111.848 59.6178 112.081 59.9071 112.389C60.2058 112.697 60.3551 113.061 60.3551 113.481C60.3551 113.836 60.2431 114.153 60.0191 114.433C59.7951 114.704 59.4964 114.918 59.1231 115.077C58.7498 115.236 58.3204 115.315 57.8351 115.315L57.8911 114.993C58.7218 114.993 59.3751 115.156 59.8511 115.483C60.3271 115.81 60.5651 116.253 60.5651 116.813C60.5651 117.261 60.4158 117.658 60.1171 118.003C59.8184 118.339 59.4124 118.605 58.8991 118.801C58.3951 118.988 57.8164 119.081 57.1631 119.081ZM67.4383 118.983V111.563H68.7823V116.967L73.3323 111.563H74.5503V118.983H73.2063V113.579L68.6703 118.983H67.4383ZM81.989 118.983V111.563H83.333V114.713H87.561V111.563H88.905V118.983H87.561V115.875H83.333V118.983H81.989ZM104.938 118.983V111.563H106.282V114.713H110.51V111.563H111.854V118.983H110.51V115.875H106.282V118.983H104.938ZM123.847 118.983V117.415L123.777 117.121V114.447C123.777 113.878 123.609 113.439 123.273 113.131C122.947 112.814 122.452 112.655 121.789 112.655C121.351 112.655 120.921 112.73 120.501 112.879C120.081 113.019 119.727 113.21 119.437 113.453L118.877 112.445C119.26 112.137 119.717 111.904 120.249 111.745C120.791 111.577 121.355 111.493 121.943 111.493C122.961 111.493 123.745 111.74 124.295 112.235C124.846 112.73 125.121 113.486 125.121 114.503V118.983H123.847ZM121.411 119.067C120.861 119.067 120.375 118.974 119.955 118.787C119.545 118.6 119.227 118.344 119.003 118.017C118.779 117.681 118.667 117.303 118.667 116.883C118.667 116.482 118.761 116.118 118.947 115.791C119.143 115.464 119.456 115.203 119.885 115.007C120.324 114.811 120.912 114.713 121.649 114.713H124.001V115.679H121.705C121.033 115.679 120.581 115.791 120.347 116.015C120.114 116.239 119.997 116.51 119.997 116.827C119.997 117.191 120.142 117.485 120.431 117.709C120.721 117.924 121.122 118.031 121.635 118.031C122.139 118.031 122.578 117.919 122.951 117.695C123.334 117.471 123.609 117.144 123.777 116.715L124.043 117.639C123.866 118.078 123.553 118.428 123.105 118.689C122.657 118.941 122.093 119.067 121.411 119.067ZM132.372 118.983V111.563H139.246V118.983H137.902V112.403L138.224 112.739H133.394L133.716 112.403V118.983H132.372ZM149.854 119.067C149.107 119.067 148.445 118.904 147.866 118.577C147.287 118.25 146.83 117.802 146.494 117.233C146.158 116.654 145.99 116.001 145.99 115.273C145.99 114.536 146.158 113.882 146.494 113.313C146.83 112.744 147.287 112.3 147.866 111.983C148.445 111.656 149.107 111.493 149.854 111.493C150.591 111.493 151.249 111.656 151.828 111.983C152.416 112.3 152.873 112.744 153.2 113.313C153.536 113.873 153.704 114.526 153.704 115.273C153.704 116.01 153.536 116.664 153.2 117.233C152.873 117.802 152.416 118.25 151.828 118.577C151.249 118.904 150.591 119.067 149.854 119.067ZM149.854 117.891C150.33 117.891 150.755 117.784 151.128 117.569C151.511 117.354 151.809 117.051 152.024 116.659C152.239 116.258 152.346 115.796 152.346 115.273C152.346 114.741 152.239 114.284 152.024 113.901C151.809 113.509 151.511 113.206 151.128 112.991C150.755 112.776 150.33 112.669 149.854 112.669C149.378 112.669 148.953 112.776 148.58 112.991C148.207 113.206 147.908 113.509 147.684 113.901C147.46 114.284 147.348 114.741 147.348 115.273C147.348 115.796 147.46 116.258 147.684 116.659C147.908 117.051 148.207 117.354 148.58 117.569C148.953 117.784 149.378 117.891 149.854 117.891ZM159.188 118.969L159.272 117.835C159.338 117.844 159.398 117.854 159.454 117.863C159.51 117.872 159.562 117.877 159.608 117.877C159.907 117.877 160.14 117.774 160.308 117.569C160.486 117.364 160.616 117.093 160.7 116.757C160.784 116.412 160.845 116.024 160.882 115.595C160.92 115.166 160.948 114.736 160.966 114.307L161.092 111.563H166.79V118.983H165.446V112.347L165.768 112.739H161.96L162.268 112.333L162.17 114.391C162.142 115.044 162.091 115.656 162.016 116.225C161.942 116.794 161.825 117.294 161.666 117.723C161.517 118.152 161.307 118.488 161.036 118.731C160.775 118.974 160.434 119.095 160.014 119.095C159.893 119.095 159.762 119.081 159.622 119.053C159.492 119.034 159.347 119.006 159.188 118.969ZM177.649 114.083C178.592 114.092 179.31 114.307 179.805 114.727C180.3 115.147 180.547 115.74 180.547 116.505C180.547 117.308 180.276 117.928 179.735 118.367C179.194 118.796 178.428 119.006 177.439 118.997L174.219 118.983V111.563H175.563V114.069L177.649 114.083ZM177.327 117.975C177.934 117.984 178.391 117.863 178.699 117.611C179.016 117.359 179.175 116.986 179.175 116.491C179.175 116.006 179.021 115.651 178.713 115.427C178.405 115.203 177.943 115.086 177.327 115.077L175.563 115.049V117.961L177.327 117.975ZM187.102 118.983V111.563H188.446V114.713H192.674V111.563H194.018V118.983H192.674V115.875H188.446V118.983H187.102ZM208.797 118.983V111.563H210.141V118.983H208.797ZM204.807 114.083C205.75 114.092 206.464 114.307 206.949 114.727C207.444 115.147 207.691 115.74 207.691 116.505C207.691 117.308 207.42 117.928 206.879 118.367C206.347 118.796 205.582 119.006 204.583 118.997L201.461 118.983V111.563H202.805V114.069L204.807 114.083ZM204.485 117.975C205.082 117.984 205.54 117.863 205.857 117.611C206.174 117.359 206.333 116.986 206.333 116.491C206.333 116.006 206.174 115.651 205.857 115.427C205.549 115.203 205.092 115.086 204.485 115.077L202.805 115.049V117.961L204.485 117.975ZM216.408 118.983L219.6 114.839L219.586 115.525L216.548 111.563H218.046L220.37 114.615H219.796L222.12 111.563H223.59L220.51 115.553L220.524 114.839L223.744 118.983H222.218L219.768 115.735L220.314 115.819L217.906 118.983H216.408ZM238.578 118.983V111.563H245.452V118.983H244.108V112.403L244.43 112.739H239.6L239.922 112.403V118.983H238.578ZM256.061 119.067C255.314 119.067 254.651 118.904 254.073 118.577C253.494 118.25 253.037 117.802 252.701 117.233C252.365 116.654 252.197 116.001 252.197 115.273C252.197 114.536 252.365 113.882 252.701 113.313C253.037 112.744 253.494 112.3 254.073 111.983C254.651 111.656 255.314 111.493 256.061 111.493C256.798 111.493 257.456 111.656 258.035 111.983C258.623 112.3 259.08 112.744 259.407 113.313C259.743 113.873 259.911 114.526 259.911 115.273C259.911 116.01 259.743 116.664 259.407 117.233C259.08 117.802 258.623 118.25 258.035 118.577C257.456 118.904 256.798 119.067 256.061 119.067ZM256.061 117.891C256.537 117.891 256.961 117.784 257.335 117.569C257.717 117.354 258.016 117.051 258.231 116.659C258.445 116.258 258.553 115.796 258.553 115.273C258.553 114.741 258.445 114.284 258.231 113.901C258.016 113.509 257.717 113.206 257.335 112.991C256.961 112.776 256.537 112.669 256.061 112.669C255.585 112.669 255.16 112.776 254.787 112.991C254.413 113.206 254.115 113.509 253.891 113.901C253.667 114.284 253.555 114.741 253.555 115.273C253.555 115.796 253.667 116.258 253.891 116.659C254.115 117.051 254.413 117.354 254.787 117.569C255.16 117.784 255.585 117.891 256.061 117.891ZM272.057 118.983L269.187 115.371L270.293 114.699L273.639 118.983H272.057ZM266.681 118.983V111.563H268.025V118.983H266.681ZM267.619 115.847V114.699H270.069V115.847H267.619ZM270.405 115.427L269.159 115.259L272.001 111.563H273.443L270.405 115.427ZM283.812 119.067C283.196 119.067 282.632 118.927 282.118 118.647C281.614 118.358 281.208 117.933 280.9 117.373C280.602 116.813 280.452 116.113 280.452 115.273C280.452 114.433 280.597 113.733 280.886 113.173C281.185 112.613 281.586 112.193 282.09 111.913C282.604 111.633 283.178 111.493 283.812 111.493C284.54 111.493 285.184 111.652 285.744 111.969C286.304 112.286 286.748 112.73 287.074 113.299C287.401 113.859 287.564 114.517 287.564 115.273C287.564 116.029 287.401 116.692 287.074 117.261C286.748 117.83 286.304 118.274 285.744 118.591C285.184 118.908 284.54 119.067 283.812 119.067ZM279.878 121.699V111.563H281.166V113.565L281.082 115.287L281.222 117.009V121.699H279.878ZM283.7 117.891C284.176 117.891 284.601 117.784 284.974 117.569C285.357 117.354 285.656 117.051 285.87 116.659C286.094 116.258 286.206 115.796 286.206 115.273C286.206 114.741 286.094 114.284 285.87 113.901C285.656 113.509 285.357 113.206 284.974 112.991C284.601 112.776 284.176 112.669 283.7 112.669C283.234 112.669 282.809 112.776 282.426 112.991C282.053 113.206 281.754 113.509 281.53 113.901C281.316 114.284 281.208 114.741 281.208 115.273C281.208 115.796 281.316 116.258 281.53 116.659C281.754 117.051 282.053 117.354 282.426 117.569C282.809 117.784 283.234 117.891 283.7 117.891ZM301.683 118.983V111.563H303.027V118.983H301.683ZM297.693 114.083C298.636 114.092 299.35 114.307 299.835 114.727C300.33 115.147 300.577 115.74 300.577 116.505C300.577 117.308 300.306 117.928 299.765 118.367C299.233 118.796 298.468 119.006 297.469 118.997L294.347 118.983V111.563H295.691V114.069L297.693 114.083ZM297.371 117.975C297.968 117.984 298.426 117.863 298.743 117.611C299.06 117.359 299.219 116.986 299.219 116.491C299.219 116.006 299.06 115.651 298.743 115.427C298.435 115.203 297.978 115.086 297.371 115.077L295.691 115.049V117.961L297.371 117.975ZM311.94 118.983V112.389L312.276 112.739H309.224V111.563H316V112.739H312.962L313.284 112.389V118.983H311.94ZM322.204 118.983V111.563H323.548V116.967L328.098 111.563H329.316V118.983H327.972V113.579L323.436 118.983H322.204ZM336.755 118.983V111.563H338.099V116.967L342.649 111.563H343.867V118.983H342.523V113.579L337.987 118.983H336.755ZM340.227 110.597C339.546 110.597 339.009 110.434 338.617 110.107C338.234 109.771 338.038 109.29 338.029 108.665H338.939C338.948 109.02 339.065 109.3 339.289 109.505C339.522 109.71 339.83 109.813 340.213 109.813C340.596 109.813 340.904 109.71 341.137 109.505C341.37 109.3 341.492 109.02 341.501 108.665H342.439C342.43 109.29 342.229 109.771 341.837 110.107C341.445 110.434 340.908 110.597 340.227 110.597Z" fill="white"/>
<path fill-rule="evenodd" clip-rule="evenodd" d="M52.4328 97.2342C49.4057 97.2452 46.3786 97.2507 43.3516 97.2563C43.3516 94.7851 43.3516 92.3028 43.3516 89.8261C43.3516 87.3549 43.3516 84.8727 43.3516 82.3959C38.9179 82.6 34.4843 82.7434 30.0507 82.8758C30.0507 85.2753 30.0507 87.6803 30.0507 90.0798C30.0507 92.4793 30.0507 94.8788 30.0507 97.2783C27.0236 97.2783 23.9965 97.2836 21 97.2836C21 91.8669 21 86.4501 21 81.0333C21 75.6165 21 70.1997 21 64.7829C23.9965 64.7056 27.0236 64.6284 30.0507 64.5512C30.0507 66.548 30.0507 68.5504 30.0507 70.5472C30.0507 72.5385 30.0507 74.5353 30.0507 76.5266C34.4843 76.3391 38.9179 76.1349 43.3516 75.8482C43.3516 73.7906 43.3516 71.7331 43.3516 69.6756C43.3516 67.6182 43.3516 65.5551 43.3516 63.4921C46.3786 63.1501 49.4057 62.8026 52.4328 62.3668C52.4328 68.1753 52.4328 73.9892 52.4328 79.8032C52.4328 85.6116 52.4328 91.4256 52.4328 97.234V97.2342ZM93.8337 97.0742C90.7149 97.0908 87.596 97.1019 84.4772 97.1129C83.6517 94.3879 82.8261 91.685 82.0311 89.0042C77.7198 89.2028 73.4085 89.3903 69.1277 89.5723C68.3022 92.1373 67.4766 94.6747 66.6816 97.1901C63.6239 97.2011 60.5662 97.2122 57.5086 97.2177C59.6489 91.2216 61.8386 85.1043 63.9603 78.8546C66.1194 72.4945 68.3022 65.9745 70.4731 59.3111C73.9283 58.6271 77.3835 57.9376 80.8692 57.2039C83.0096 63.4812 85.2025 69.9014 87.3209 76.4716C89.4833 83.1786 91.6628 90.0522 93.8337 97.0742ZM79.8601 81.8388C79.1263 79.5552 78.3949 77.2874 77.6892 75.0375C76.9884 72.8028 76.2827 70.586 75.5794 68.3795C74.8455 70.7845 74.1148 73.1683 73.4085 75.5339C72.7083 77.879 72.0019 80.2116 71.2986 82.5283C74.1423 82.3077 76.9859 82.0815 79.8601 81.8388ZM130.373 96.9253C127.346 96.9363 124.319 96.9474 121.292 96.9584C121.292 90.477 121.292 83.9956 121.292 77.5142C121.292 71.0328 121.292 64.5514 121.292 58.0644C116.858 58.765 112.424 59.4655 107.991 60.2157C107.991 66.3552 107.991 72.489 107.991 78.6174C107.991 84.7513 107.991 90.8797 107.991 97.0135C104.964 97.0246 101.937 97.0411 98.9094 97.0522C98.9094 89.7654 98.9094 82.4731 98.9094 75.1808C98.9094 67.8941 98.9094 60.6019 98.9094 53.3096C109.397 51.07 119.885 48.9795 130.373 47.1316C130.373 55.4332 130.373 63.735 130.373 72.0312C130.373 80.3274 130.373 88.6291 130.373 96.9253ZM173.517 70.4646C173.517 74.6734 173.088 78.4518 172.294 81.7836C171.498 85.1207 170.295 88.0273 168.686 90.5046C165.464 95.4629 161.041 97.9513 155.385 97.9513C149.728 97.9513 145.339 95.5159 142.114 90.7252C140.508 88.3394 139.273 85.5562 138.476 82.3628C137.683 79.1852 137.283 75.5725 137.283 71.5237C137.283 67.4528 137.683 63.7576 138.476 60.453C139.273 57.1272 140.507 54.2046 142.114 51.6437C145.338 46.5096 149.723 43.5528 155.385 43.2151C161.006 42.8799 165.472 45.3066 168.686 50.2482C170.304 52.7369 171.497 55.6928 172.294 59.0629C173.087 62.4224 173.517 66.2338 173.517 70.4646ZM161.5 83.8467C162.393 82.2333 163.029 80.333 163.457 78.1375C163.886 75.9367 164.099 73.3661 164.099 70.3929C164.099 67.2267 163.856 64.5235 163.365 62.3008C162.878 60.094 162.244 58.2911 161.469 56.9502C160.654 55.5385 159.735 54.5219 158.687 53.9163C157.625 53.3028 156.546 53.054 155.415 53.122C154.253 53.1919 153.185 53.5597 152.174 54.2308C151.166 54.9 150.2 55.9543 149.361 57.4025C148.58 58.7511 147.942 60.5994 147.435 62.9407C146.932 65.2606 146.701 67.9272 146.701 70.9556C146.701 74.0446 146.961 76.6727 147.435 78.827C147.909 80.9864 148.537 82.7428 149.33 84.1004C150.127 85.4622 151.039 86.4714 152.082 87.1067C153.149 87.7566 154.253 88.0637 155.415 88.0499C156.577 88.0362 157.679 87.6813 158.748 86.9963C159.788 86.33 160.711 85.2726 161.5 83.8467ZM212.257 96.9474C209.23 96.9364 206.203 96.9253 203.176 96.9198C203.176 90.1736 203.176 83.4275 203.176 76.6812C203.176 69.9351 203.176 63.1889 203.176 56.4372C199.843 56.0731 196.51 55.7146 193.177 55.4332C193.086 57.6838 193.04 59.4549 192.994 60.7397C192.948 62.02 192.875 63.7296 192.78 65.8366C192.57 70.4813 192.274 74.3771 191.863 77.5252C191.449 80.693 190.988 83.2978 190.456 85.3415C189.918 87.4074 189.342 89.0984 188.744 90.4163C188.15 91.7242 187.559 92.8092 186.97 93.6322C186.183 94.7344 185.232 95.6077 184.096 96.2579C182.938 96.9206 181.711 97.2342 180.427 97.2342C179.632 97.2342 178.838 97.178 177.981 97.0852C177.156 96.996 176.605 96.9253 176.36 96.8812C176.36 92.9592 176.36 89.0373 176.36 85.1098C176.452 85.1098 176.575 85.1057 176.697 85.1152C176.85 85.1274 177.003 85.151 177.186 85.1648C177.37 85.1787 177.583 85.1992 177.797 85.2034C178.684 85.2212 179.322 85.1332 179.754 84.9773C180.178 84.8242 180.559 84.5427 180.886 84.1223C182.088 82.5734 182.914 80.0967 183.362 76.7032C183.587 75.0053 183.76 72.9632 183.913 70.5803C184.065 68.2028 184.222 65.4835 184.341 62.4275C184.436 59.9895 184.54 57.3474 184.585 54.4844C184.631 51.6272 184.677 48.3504 184.738 44.6602C193.911 45.5372 203.084 46.6846 212.257 48.0471C212.257 56.1998 212.257 64.3526 212.257 72.4999C212.257 80.6471 212.257 88.7999 212.257 96.9472V96.9474ZM246.656 97.0687C238.186 97.0412 229.717 97.0081 221.247 96.9749C221.247 89.0704 221.247 81.1659 221.247 73.2613C221.247 65.3567 221.247 57.4467 221.247 49.5421C229.717 51.0535 238.186 52.6366 246.656 54.2528C246.656 57.0219 246.656 59.791 246.656 62.5546C241.213 61.7161 235.771 60.8777 230.328 60.0557C230.328 62.6869 230.328 65.3181 230.328 67.9437C235.373 68.545 240.419 69.1573 245.494 69.7806C245.494 72.5607 245.494 75.3463 245.494 78.1264C240.419 77.6852 235.373 77.2549 230.328 76.8302C230.328 80.5977 230.328 84.3596 230.328 88.1216C235.771 88.3312 241.213 88.5519 246.656 88.767C246.656 91.5361 246.656 94.3052 246.656 97.0687ZM288.393 79.4393C288.393 82.2746 287.963 84.8004 287.17 87.0184C286.374 89.2463 285.177 91.1891 283.593 92.8489C280.376 96.2198 275.918 97.9513 270.261 97.9513C264.635 97.9513 260.195 96.0698 256.991 92.2035C255.363 90.2393 254.145 87.9071 253.352 85.2423C252.555 82.562 252.16 79.5441 252.16 76.2124C252.16 72.8641 252.553 69.9064 253.352 67.3701C254.143 64.8592 255.365 62.7651 256.991 61.1259C260.196 57.8944 264.632 56.8668 270.261 57.8824C275.884 58.8968 280.322 61.3512 283.562 65.2354C285.154 67.1431 286.37 69.2801 287.17 71.6506C287.96 73.9909 288.393 76.5875 288.393 79.4393ZM276.377 87.9616C277.269 86.8676 277.906 85.5622 278.334 84.0452C278.762 82.5283 278.976 80.7466 278.976 78.667C278.976 76.4496 278.731 74.5355 278.242 72.9248C277.753 71.3141 277.118 69.9527 276.346 68.8925C275.528 67.7682 274.603 66.9122 273.564 66.3055C272.524 65.6987 271.423 65.3098 270.292 65.1471C269.16 64.9843 268.061 65.0393 267.051 65.3512C266.043 65.6626 265.077 66.2537 264.238 67.2046C263.456 68.0908 262.832 69.3782 262.342 71.0824C261.854 72.7815 261.578 74.7893 261.578 77.1225C261.578 79.511 261.823 81.5683 262.311 83.2675C262.801 84.9718 263.409 86.3637 264.207 87.4487C264.999 88.526 265.913 89.3398 266.959 89.8647C268.023 90.3989 269.13 90.6728 270.292 90.7087C271.454 90.7445 272.556 90.5352 273.625 90.0854C274.666 89.6471 275.587 88.9306 276.377 87.9616ZM326.767 97.2838C323.74 97.2838 320.713 97.2785 317.686 97.2785C317.686 94.879 317.686 92.4795 317.686 90.08C317.686 87.6805 317.686 85.281 317.686 82.8815C313.252 82.7546 308.819 82.6168 304.385 82.4347C304.385 84.9059 304.385 87.3771 304.385 89.8483C304.385 92.3195 304.385 94.7907 304.385 97.262C301.358 97.2509 298.331 97.2454 295.304 97.2399C295.304 91.4645 295.304 85.6837 295.304 79.9083C295.304 74.1275 295.304 68.3522 295.304 62.5713C298.331 62.9464 301.358 63.2608 304.385 63.5752C304.385 65.6327 304.385 67.6902 304.385 69.7422C304.385 71.7942 304.385 73.8516 304.385 75.9037C308.819 76.1629 313.252 76.3615 317.686 76.538C317.686 74.5412 317.686 72.5444 317.686 70.5531C317.686 68.5618 317.686 66.5594 317.686 64.5626C320.713 64.6343 323.74 64.7115 326.767 64.7832C326.767 70.2 326.767 75.6168 326.767 81.0336C326.767 86.4504 326.767 91.8672 326.767 97.284V97.2838Z" fill="#E30016"/>
<path fill-rule="evenodd" clip-rule="evenodd" d="M182.06 29.9916L176.475 36.8192L173.209 36.4552C168.599 35.9415 163.978 35.6582 159.338 35.7014C158.778 35.7067 158.259 35.81 157.684 35.7784C157.227 35.7534 156.812 35.7904 156.358 35.8304C155.821 35.8775 155.286 35.9098 154.747 35.9234C154.398 35.9323 154.049 35.9314 153.7 35.9437C153.565 35.9484 153.431 35.9555 153.296 35.9664C152.235 36.0524 151.196 36.2677 150.132 36.3561C149.183 36.4352 148.245 36.5445 147.303 36.6902C146.291 36.847 145.281 37.0321 144.27 37.2001C141.58 37.6472 138.858 38.3225 136.227 39.0432L130.586 40.7126L130.2 40.2723C129.787 39.8002 129.316 39.3671 128.841 38.9584C127.894 38.1435 126.821 37.3889 125.929 36.5275C125.287 35.9074 124.445 35.3681 123.732 34.8185C121.939 33.4357 120.13 32.0949 118.367 30.6683C117.146 29.6801 115.91 28.647 114.793 27.5421C114.121 26.8775 112.978 25.7137 112.882 24.7318C112.824 24.1449 112.919 23.5622 113.356 23.1318C113.921 22.5748 114.774 22.5763 115.514 22.5139C116.729 22.4113 117.772 22.6732 118.949 22.8701C120.456 23.1223 123.331 23.8241 124.776 23.5546C126.554 23.2231 128.013 22.4287 129.233 21.0942C130.405 19.8125 131.217 18.193 131.889 16.6057C132.373 15.4642 132.798 14.2996 133.254 13.1472C133.691 12.0429 134.162 10.9252 134.764 9.89954C135.727 8.25873 136.635 7.07055 138.052 5.78699C141.044 3.07755 145.435 1.62672 149.387 1.16965L149.401 1.16787L150.956 1.03663L150.97 1.03604C154.074 0.869947 157.424 1.26194 160.278 2.54662C161.947 3.29782 163.49 4.28115 164.794 5.57134C165.755 6.52219 166.609 7.5738 167.408 8.66263C168.7 10.424 169.84 12.291 171.131 14.0501C172.21 15.5204 173.474 17.016 175.061 17.9556C176.322 18.7022 177.681 19.0234 179.142 18.9869C179.933 18.9672 181.072 18.5868 181.824 18.3313C182.779 18.0063 183.713 17.6289 184.665 17.2986C185.477 17.0168 186.26 16.7529 187.102 16.5596C188.13 16.3235 189.788 16.0309 190.536 17.0001C190.709 17.225 190.809 17.4899 190.836 17.7717C190.948 18.9058 190.153 20.2764 189.556 21.1944C188.696 22.5162 187.658 23.7805 186.629 24.9744C185.781 25.9598 184.905 26.9219 184.02 27.8757C183.368 28.5802 182.703 29.278 182.06 29.9916Z" fill="#1B1918" stroke="#4C110C" stroke-width="0.5669"/>
<path fill-rule="evenodd" clip-rule="evenodd" d="M149.492 2.04494L151.019 1.91608C154.192 1.74631 157.343 2.19503 159.903 3.34747C161.509 4.06992 162.944 4.99433 164.151 6.1885C169.455 11.4366 171.509 20.0588 179.165 19.868C180.685 19.83 183.598 18.6037 184.965 18.1295C185.34 17.9991 189.78 16.33 189.927 17.8292C190.172 20.3125 183.479 27.0175 181.367 29.3648L176.083 35.8246L173.31 35.5157C168.659 34.971 164.045 34.7123 159.33 34.7563C158.766 34.7616 158.31 34.8662 157.734 34.8347C157.202 34.8055 156.849 34.8382 156.278 34.8887C154.672 35.0299 154.057 34.9566 153.223 35.0242C152.008 35.1225 151.295 35.3111 150.057 35.4142C147.706 35.6098 146.497 35.8723 144.121 36.2673C141.516 36.7001 138.417 37.4641 135.977 38.133L130.888 39.6389C129.61 38.1791 127.606 36.8443 126.564 35.8387C125.97 35.2648 124.991 34.6042 124.29 34.0634C122.069 32.3512 113.971 26.4417 113.791 24.6104C113.676 23.4507 114.442 23.489 115.591 23.392C116.739 23.2951 117.825 23.576 118.798 23.7389C120.364 24.001 123.356 24.7167 124.944 24.4205C132.226 23.0624 132.856 14.9217 135.552 10.3299C136.48 8.74868 137.268 7.69766 138.666 6.432C141.293 4.05256 145.333 2.52597 149.492 2.04494Z" fill="#E30016"/>
</svg>
